<?xml version="1.0" standalone="no"?>
<!DOCTYPE svg PUBLIC "-//W3C//DTD SVG 20010904//EN"
 "http://www.w3.org/TR/2001/REC-SVG-20010904/DTD/svg10.dtd">
<svg version="1.0" xmlns="http://www.w3.org/2000/svg"
 width="512.000000pt" height="512.000000pt" viewBox="0 0 512.000000 512.000000"
 preserveAspectRatio="xMidYMid meet">
<metadata>
Created by potrace 1.14, written by Peter Selinger 2001-2017
</metadata>
<g transform="translate(0.000000,512.000000) scale(0.100000,-0.100000)"
fill="#000000" stroke="none">
<path d="M1588 5102 c-13 -9 -31 -12 -51 -8 -81 17 -108 17 -155 -5 -26 -11
-70 -22 -97 -23 -48 -3 -95 -22 -95 -38 0 -5 -26 -8 -59 -8 -70 0 -115 -14
-161 -50 -25 -19 -51 -29 -88 -32 -66 -6 -102 -32 -121 -85 -12 -35 -12 -46 0
-85 14 -40 13 -47 -3 -73 -23 -39 -23 -92 2 -132 14 -23 19 -48 18 -88 -1 -47
3 -62 30 -101 21 -29 32 -57 32 -79 0 -47 16 -85 53 -122 18 -20 32 -45 33
-63 4 -50 55 -119 112 -149 11 -6 23 -24 27 -39 10 -47 58 -95 114 -116 28
-10 51 -24 51 -32 0 -28 61 -83 111 -99 27 -9 47 -20 44 -25 -3 -4 -26 -20
-53 -36 -124 -72 -250 -206 -303 -324 -11 -25 -24 -54 -29 -65 -20 -41 -49
-193 -55 -279 -6 -102 -20 -134 -72 -172 -82 -60 -166 -162 -217 -261 -71
-140 -94 -244 -90 -394 4 -180 47 -298 164 -454 23 -31 42 -71 50 -105 7 -30
32 -113 55 -185 24 -71 51 -164 60 -205 54 -239 254 -480 475 -575 25 -11 77
-43 115 -71 39 -28 102 -71 140 -94 70 -43 271 -140 290 -140 6 0 29 -18 50
-41 131 -134 351 -235 534 -244 57 -3 89 0 171 20 200 49 442 163 514 244 11
11 24 21 30 21 6 0 55 20 109 44 107 48 214 112 322 191 39 28 90 59 114 68
226 90 450 376 486 622 5 28 20 84 36 125 45 122 76 226 78 266 1 5 9 19 19
30 38 41 111 162 135 224 40 103 49 148 52 256 5 178 -42 334 -147 490 -37 55
-152 171 -177 179 -28 9 -53 75 -56 145 -5 127 -33 252 -78 349 -60 132 -182
260 -331 351 l-40 24 40 17 c21 10 44 18 50 18 16 1 74 69 74 86 0 8 12 18 28
21 62 16 119 65 132 114 7 26 23 46 54 68 51 37 84 85 89 131 2 18 17 45 35
64 36 37 52 75 52 122 0 22 11 50 32 80 27 38 31 53 30 101 0 39 5 65 19 87
24 40 24 93 1 132 -16 26 -17 33 -4 72 12 36 12 49 1 84 -18 55 -54 80 -121
87 -36 3 -64 13 -88 32 -49 37 -76 46 -145 49 -43 1 -68 8 -90 23 -19 14 -46
22 -80 24 -27 1 -70 11 -95 23 -51 23 -78 26 -133 10 -30 -8 -47 -7 -81 6 -47
18 -89 15 -148 -9 -24 -10 -52 -13 -85 -9 -39 4 -58 1 -94 -17 -30 -16 -59
-23 -90 -21 -59 2 -88 -9 -139 -56 -32 -28 -51 -38 -81 -39 -90 -4 -227 -164
-304 -355 l-32 -79 -21 61 c-30 89 -99 202 -166 276 -65 70 -105 96 -152 97
-21 1 -44 13 -73 39 -52 47 -80 58 -140 56 -31 -1 -61 5 -90 21 -35 18 -54 21
-96 16 -38 -4 -65 0 -104 14 -57 22 -103 23 -133 2z"/>
</g>
</svg>
